<svg xmlns="http://www.w3.org/2000/svg" xmlns:xlink="http://www.w3.org/1999/xlink" xmlns:lucid="lucid" width="1034.92" height="271.92"><g transform="translate(-60 -59.999999999999986)" lucid:page-tab-id="0_0"><path d="M151.04 105.37v121.75h182.4V105.37h-182.4zm50.56 111.6h-40.32v-76.1h40.32v76.1zm121.92 0H211.84v-76.1h111.68v76.1z" stroke="#000" stroke-opacity="0"/><path d="M298.24 151.02h-56v10.15h56v-10.15zM298.24 166.24h-56v10.15h56v-10.16zM298.24 181.46h-56v10.15h56v-10.14zM298.24 196.68h-56v10.15h56v-10.15z" stroke="#000" stroke-opacity="0"/><path d="M374.08 238.9V98.25c0-6.5-2.88-18.26-10.56-18.26H120.96c-7.36 0-15.04 11.77-15.04 18.26V238.9C78.4 268.3 80 268.3 80 268.3c0 7.92 4.16 14.62 15.68 14.62h289.28c8.96 0 15.04-6.7 15.04-14.6l-25.92-29.43zm-109.12 31.85h-49.92c-2.56 0-5.12-1.02-5.12-2.44l5.44-9.12c0-1.02 1.92-1.62 4.16-1.62h40.64c1.92 0 3.84.6 3.84 1.62l6.08 9.54c0 1-2.24 2.03-5.12 2.03zm98.88-33.9c-35.52.4-248.32.4-248.32.4V100.3c0-3.46 2.88-10.15 7.04-10.15h235.2c4.16 0 6.72 4.66 6.72 7.7v139h-.64z" stroke="#000" stroke-opacity="0"/><use xlink:href="#a" transform="matrix(1,0,0,1,50,291.921316570137) translate(120.64999999999999 14.4)"/><use xlink:href="#b" transform="matrix(1,0,0,1,50,291.921316570137) translate(171.5 14.4)"/><path d="M1069.03 80H925.9c-3.27 0-5.9 2.6-5.9 5.95v36.1c0 3.36 2.63 5.95 5.9 5.95h143.13c3.26 0 5.9-2.6 5.9-5.95v-36.1c0-3.3-2.64-5.95-5.9-5.95zM933 122.1c-2.93 0-5.56-2.6-5.56-5.62 0-2.98 2.63-5.57 5.57-5.57 3.1 0 5.6 2.6 5.6 5.58 0 3.4-2.64 5.62-5.6 5.62zm130.46-1.88h-31.3c-1.24 0-1.86-.72-1.86-1.87 0-1.1.62-1.87 1.86-1.87h31.3c1.08 0 1.86.77 1.86 1.87 0 .82-.78 1.87-1.86 1.87zm0-6.33h-31.3c-1.24 0-1.86-.73-1.86-1.88 0-1.1.62-1.88 1.86-1.88h31.3c1.08 0 1.86.77 1.86 1.88 0 1.15-.78 1.87-1.86 1.87zm0-5.92h-31.3c-1.24 0-1.86-.76-1.86-1.87 0-1.14.62-1.86 1.86-1.86h31.3c1.08 0 1.86.72 1.86 1.87 0 1.12-.78 1.88-1.86 1.88zM1069.03 234.92H925.9c-3.27 0-5.9 2.6-5.9 5.95v36.1c0 3.36 2.63 5.95 5.9 5.95h143.13c3.26 0 5.9-2.6 5.9-5.95v-36.1c0-3.3-2.64-5.95-5.9-5.95zM933 277.02c-2.93 0-5.56-2.6-5.56-5.62 0-2.97 2.63-5.57 5.57-5.57 3.1 0 5.6 2.6 5.6 5.57 0 3.4-2.64 5.62-5.6 5.62zm130.46-1.87h-31.3c-1.24 0-1.86-.72-1.86-1.88 0-1.1.62-1.87 1.86-1.87h31.3c1.08 0 1.86.77 1.86 1.87 0 .82-.78 1.88-1.86 1.88zm0-6.34h-31.3c-1.24 0-1.86-.7-1.86-1.86 0-1.1.62-1.87 1.86-1.87h31.3c1.08 0 1.86.76 1.86 1.87 0 1.15-.78 1.87-1.86 1.87zm0-5.9h-31.3c-1.24 0-1.86-.76-1.86-1.87 0-1.15.62-1.87 1.86-1.87h31.3c1.08 0 1.86.72 1.86 1.87 0 1.1-.78 1.88-1.86 1.88z" stroke="#000" stroke-opacity="0"/><use xlink:href="#c" transform="matrix(1,0,0,1,890,291.92131657013704) translate(34.625 14.4)"/><use xlink:href="#d" transform="matrix(1,0,0,1,890,291.92131657013704) translate(92.525 14.4)"/><path d="M421 100h460.5M421.03 100H420" stroke="#000" stroke-width="2" fill="none"/><path d="M896.76 100l-14.26 4.64v-9.28z" stroke="#000" stroke-width="2"/><use xlink:href="#e" transform="matrix(1,0,0,1,498.67499999999995,74.39999999999999) translate(0 14.4)"/><use xlink:href="#f" transform="matrix(1,0,0,1,498.67499999999995,74.39999999999999) translate(44 14.4)"/><use xlink:href="#g" transform="matrix(1,0,0,1,498.67499999999995,74.39999999999999) translate(98.9 14.4)"/><use xlink:href="#h" transform="matrix(1,0,0,1,498.67499999999995,74.39999999999999) translate(163.85000000000002 14.4)"/><use xlink:href="#i" transform="matrix(1,0,0,1,498.67499999999995,74.39999999999999) translate(198.85000000000002 14.4)"/><use xlink:href="#j" transform="matrix(1,0,0,1,498.67499999999995,74.39999999999999) translate(252.70000000000002 14.4)"/><path d="M438.5 140H899" stroke="#000" stroke-width="2" fill="none"/><path d="M423.24 140l14.26-4.64v9.28z" stroke="#000" stroke-width="2"/><path d="M898.97 140H900" stroke="#000" stroke-width="2" fill="none"/><use xlink:href="#k" transform="matrix(1,0,0,1,528.6,114.4) translate(0 14.4)"/><use xlink:href="#l" transform="matrix(1,0,0,1,528.6,114.4) translate(78.95 14.4)"/><use xlink:href="#m" transform="matrix(1,0,0,1,528.6,114.4) translate(139.9 14.4)"/><path d="M421 200h460.5M421.03 200H420" stroke="#000" stroke-width="2" fill="none"/><path d="M896.76 200l-14.26 4.64v-9.28z" stroke="#000" stroke-width="2"/><use xlink:href="#n" transform="matrix(1,0,0,1,586.15,174.39999999999998) translate(0 14.4)"/><use xlink:href="#i" transform="matrix(1,0,0,1,586.15,174.39999999999998) translate(33.9 14.4)"/><use xlink:href="#o" transform="matrix(1,0,0,1,586.15,174.39999999999998) translate(87.75 14.4)"/><path d="M421 240h460.5M421.03 240H420" stroke="#000" stroke-width="2" fill="none"/><path d="M896.76 240l-14.26 4.64v-9.28z" stroke="#000" stroke-width="2"/><g><use xlink:href="#p" transform="matrix(1,0,0,1,583.6,214.39999999999998) translate(0 14.4)"/><use xlink:href="#i" transform="matrix(1,0,0,1,583.6,214.39999999999998) translate(39 14.4)"/><use xlink:href="#o" transform="matrix(1,0,0,1,583.6,214.39999999999998) translate(92.85 14.4)"/></g><path d="M1069.03 157.46H925.9c-3.27 0-5.9 2.6-5.9 5.95v36.1c0 3.37 2.63 5.96 5.9 5.96h143.13c3.26 0 5.9-2.6 5.9-5.95v-36.1c0-3.3-2.64-5.94-5.9-5.94zM933 199.56c-2.93 0-5.56-2.6-5.56-5.62 0-2.98 2.63-5.57 5.57-5.57 3.1 0 5.6 2.6 5.6 5.57 0 3.4-2.64 5.62-5.6 5.62zm130.46-1.88h-31.3c-1.24 0-1.86-.72-1.86-1.87 0-1.1.62-1.86 1.86-1.86h31.3c1.08 0 1.86.77 1.86 1.87 0 .83-.78 1.88-1.86 1.88zm0-6.33h-31.3c-1.24 0-1.86-.72-1.86-1.87 0-1.1.62-1.88 1.86-1.88h31.3c1.08 0 1.86.77 1.86 1.88 0 1.15-.78 1.87-1.86 1.87zm0-5.9h-31.3c-1.24 0-1.86-.77-1.86-1.88 0-1.15.62-1.87 1.86-1.87h31.3c1.08 0 1.86.72 1.86 1.87 0 1.1-.78 1.87-1.86 1.87z" stroke="#000" stroke-opacity="0"/><path d="M421 280h460.5M421.03 280H420" stroke="#000" stroke-width="2" fill="none"/><path d="M896.76 280l-14.26 4.64v-9.28z" stroke="#000" stroke-width="2"/><g><use xlink:href="#q" transform="matrix(1,0,0,1,583.125,254.40000000000003) translate(0 14.4)"/><use xlink:href="#i" transform="matrix(1,0,0,1,583.125,254.40000000000003) translate(39.95 14.4)"/><use xlink:href="#o" transform="matrix(1,0,0,1,583.125,254.40000000000003) translate(93.80000000000001 14.4)"/></g><defs><path d="M212-179c-10-28-35-45-73-45-59 0-87 40-87 99 0 60 29 101 89 101 43 0 62-24 78-52l27 14C228-24 195 4 139 4 59 4 22-46 18-125c-6-104 99-153 187-111 19 9 31 26 39 46" id="r"/><path d="M24 0v-261h32V0H24" id="s"/><path d="M24-231v-30h32v30H24zM24 0v-190h32V0H24" id="t"/><path d="M100-194c63 0 86 42 84 106H49c0 40 14 67 53 68 26 1 43-12 49-29l28 8c-11 28-37 45-77 45C44 4 14-33 15-96c1-61 26-98 85-98zm52 81c6-60-76-77-97-28-3 7-6 17-6 28h103" id="u"/><path d="M117-194c89-4 53 116 60 194h-32v-121c0-31-8-49-39-48C34-167 62-67 57 0H25l-1-190h30c1 10-1 24 2 32 11-22 29-35 61-36" id="v"/><path d="M59-47c-2 24 18 29 38 22v24C64 9 27 4 27-40v-127H5v-23h24l9-43h21v43h35v23H59v120" id="w"/><g id="a"><use transform="matrix(0.05,0,0,0.05,0,0)" xlink:href="#r"/><use transform="matrix(0.05,0,0,0.05,12.950000000000001,0)" xlink:href="#s"/><use transform="matrix(0.05,0,0,0.05,16.900000000000002,0)" xlink:href="#t"/><use transform="matrix(0.05,0,0,0.05,20.85,0)" xlink:href="#u"/><use transform="matrix(0.05,0,0,0.05,30.85,0)" xlink:href="#v"/><use transform="matrix(0.05,0,0,0.05,40.85,0)" xlink:href="#w"/></g><path d="M205 0l-28-72H64L36 0H1l101-248h38L239 0h-34zm-38-99l-47-123c-12 45-31 82-46 123h93" id="x"/><path d="M115-194c55 1 70 41 70 98S169 2 115 4C84 4 66-9 55-30l1 105H24l-1-265h31l2 30c10-21 28-34 59-34zm-8 174c40 0 45-34 45-75s-6-73-45-74c-42 0-51 32-51 76 0 43 10 73 51 73" id="y"/><path d="M96-169c-40 0-48 33-48 73s9 75 48 75c24 0 41-14 43-38l32 2c-6 37-31 61-74 61-59 0-76-41-82-99-10-93 101-131 147-64 4 7 5 14 7 22l-32 3c-4-21-16-35-41-35" id="z"/><path d="M141-36C126-15 110 5 73 4 37 3 15-17 15-53c-1-64 63-63 125-63 3-35-9-54-41-54-24 1-41 7-42 31l-33-3c5-37 33-52 76-52 45 0 72 20 72 64v82c-1 20 7 32 28 27v20c-31 9-61-2-59-35zM48-53c0 20 12 33 32 33 41-3 63-29 60-74-43 2-92-5-92 41" id="A"/><path d="M100-194c62-1 85 37 85 99 1 63-27 99-86 99S16-35 15-95c0-66 28-99 85-99zM99-20c44 1 53-31 53-75 0-43-8-75-51-75s-53 32-53 75 10 74 51 75" id="B"/><g id="b"><use transform="matrix(0.05,0,0,0.05,0,0)" xlink:href="#x"/><use transform="matrix(0.05,0,0,0.05,12,0)" xlink:href="#y"/><use transform="matrix(0.05,0,0,0.05,22,0)" xlink:href="#y"/><use transform="matrix(0.05,0,0,0.05,32,0)" xlink:href="#s"/><use transform="matrix(0.05,0,0,0.05,35.95,0)" xlink:href="#t"/><use transform="matrix(0.05,0,0,0.05,39.900000000000006,0)" xlink:href="#z"/><use transform="matrix(0.05,0,0,0.05,48.900000000000006,0)" xlink:href="#A"/><use transform="matrix(0.05,0,0,0.05,58.900000000000006,0)" xlink:href="#w"/><use transform="matrix(0.05,0,0,0.05,63.900000000000006,0)" xlink:href="#t"/><use transform="matrix(0.05,0,0,0.05,67.85000000000001,0)" xlink:href="#B"/><use transform="matrix(0.05,0,0,0.05,77.85000000000001,0)" xlink:href="#v"/></g><path d="M185-189c-5-48-123-54-124 2 14 75 158 14 163 119 3 78-121 87-175 55-17-10-28-26-33-46l33-7c5 56 141 63 141-1 0-78-155-14-162-118-5-82 145-84 179-34 5 7 8 16 11 25" id="C"/><path d="M114-163C36-179 61-72 57 0H25l-1-190h30c1 12-1 29 2 39 6-27 23-49 58-41v29" id="D"/><path d="M108 0H70L1-190h34L89-25l56-165h34" id="E"/><g id="c"><use transform="matrix(0.05,0,0,0.05,0,0)" xlink:href="#C"/><use transform="matrix(0.05,0,0,0.05,12,0)" xlink:href="#u"/><use transform="matrix(0.05,0,0,0.05,22,0)" xlink:href="#D"/><use transform="matrix(0.05,0,0,0.05,27.950000000000003,0)" xlink:href="#E"/><use transform="matrix(0.05,0,0,0.05,36.95,0)" xlink:href="#u"/><use transform="matrix(0.05,0,0,0.05,46.95,0)" xlink:href="#D"/></g><g id="d"><use transform="matrix(0.05,0,0,0.05,0,0)" xlink:href="#x"/><use transform="matrix(0.05,0,0,0.05,12,0)" xlink:href="#y"/><use transform="matrix(0.05,0,0,0.05,22,0)" xlink:href="#y"/><use transform="matrix(0.05,0,0,0.05,32,0)" xlink:href="#s"/><use transform="matrix(0.05,0,0,0.05,35.95,0)" xlink:href="#t"/><use transform="matrix(0.05,0,0,0.05,39.900000000000006,0)" xlink:href="#z"/><use transform="matrix(0.05,0,0,0.05,48.900000000000006,0)" xlink:href="#A"/><use transform="matrix(0.05,0,0,0.05,58.900000000000006,0)" xlink:href="#w"/><use transform="matrix(0.05,0,0,0.05,63.900000000000006,0)" xlink:href="#t"/><use transform="matrix(0.05,0,0,0.05,67.85000000000001,0)" xlink:href="#B"/><use transform="matrix(0.05,0,0,0.05,77.85000000000001,0)" xlink:href="#v"/></g><path d="M85-194c31 0 48 13 60 33l-1-100h32l1 261h-30c-2-10 0-23-3-31C134-8 116 4 85 4 32 4 16-35 15-94c0-66 23-100 70-100zm9 24c-40 0-46 34-46 75 0 40 6 74 45 74 42 0 51-32 51-76 0-42-9-74-50-73" id="F"/><path d="M135-143c-3-34-86-38-87 0 15 53 115 12 119 90S17 21 10-45l28-5c4 36 97 45 98 0-10-56-113-15-118-90-4-57 82-63 122-42 12 7 21 19 24 35" id="G"/><g id="e"><use transform="matrix(0.05,0,0,0.05,0,0)" xlink:href="#F"/><use transform="matrix(0.05,0,0,0.05,10,0)" xlink:href="#B"/><use transform="matrix(0.05,0,0,0.05,20,0)" xlink:href="#u"/><use transform="matrix(0.05,0,0,0.05,30,0)" xlink:href="#G"/></g><g id="f"><use transform="matrix(0.05,0,0,0.05,0,0)" xlink:href="#G"/><use transform="matrix(0.05,0,0,0.05,9,0)" xlink:href="#u"/><use transform="matrix(0.05,0,0,0.05,19,0)" xlink:href="#D"/><use transform="matrix(0.05,0,0,0.05,24.95,0)" xlink:href="#E"/><use transform="matrix(0.05,0,0,0.05,33.95,0)" xlink:href="#u"/><use transform="matrix(0.05,0,0,0.05,43.95,0)" xlink:href="#D"/></g><path d="M84 4C-5 8 30-112 23-190h32v120c0 31 7 50 39 49 72-2 45-101 50-169h31l1 190h-30c-1-10 1-25-2-33-11 22-28 36-60 37" id="H"/><g id="g"><use transform="matrix(0.05,0,0,0.05,0,0)" xlink:href="#G"/><use transform="matrix(0.05,0,0,0.05,9,0)" xlink:href="#H"/><use transform="matrix(0.05,0,0,0.05,19,0)" xlink:href="#y"/><use transform="matrix(0.05,0,0,0.05,29,0)" xlink:href="#y"/><use transform="matrix(0.05,0,0,0.05,39,0)" xlink:href="#B"/><use transform="matrix(0.05,0,0,0.05,49,0)" xlink:href="#D"/><use transform="matrix(0.05,0,0,0.05,54.95,0)" xlink:href="#w"/></g><path d="M106-169C34-169 62-67 57 0H25v-261h32l-1 103c12-21 28-36 61-36 89 0 53 116 60 194h-32v-121c2-32-8-49-39-48" id="I"/><g id="h"><use transform="matrix(0.05,0,0,0.05,0,0)" xlink:href="#I"/><use transform="matrix(0.05,0,0,0.05,10,0)" xlink:href="#w"/><use transform="matrix(0.05,0,0,0.05,15,0)" xlink:href="#w"/><use transform="matrix(0.05,0,0,0.05,20,0)" xlink:href="#y"/></g><g id="i"><use transform="matrix(0.05,0,0,0.05,0,0)" xlink:href="#y"/><use transform="matrix(0.05,0,0,0.05,10,0)" xlink:href="#A"/><use transform="matrix(0.05,0,0,0.05,20,0)" xlink:href="#D"/><use transform="matrix(0.05,0,0,0.05,25.950000000000003,0)" xlink:href="#w"/><use transform="matrix(0.05,0,0,0.05,30.950000000000003,0)" xlink:href="#t"/><use transform="matrix(0.05,0,0,0.05,34.9,0)" xlink:href="#A"/><use transform="matrix(0.05,0,0,0.05,44.9,0)" xlink:href="#s"/></g><path d="M145-31C134-9 116 4 85 4 32 4 16-35 15-94c0-59 17-99 70-100 32-1 48 14 60 33 0-11-1-24 2-32h30l-1 268h-32zM93-21c41 0 51-33 51-76s-8-73-50-73c-40 0-46 35-46 75s5 74 45 74" id="J"/><path d="M103-251c84 0 111 97 45 133-19 10-37 24-39 52H78c0-63 77-55 77-114 0-30-21-42-52-43-32 0-53 17-56 46l-32-2c7-45 34-72 88-72zM77 0v-35h34V0H77" id="K"/><g id="j"><use transform="matrix(0.05,0,0,0.05,0,0)" xlink:href="#D"/><use transform="matrix(0.05,0,0,0.05,5.95,0)" xlink:href="#u"/><use transform="matrix(0.05,0,0,0.05,15.949999999999998,0)" xlink:href="#J"/><use transform="matrix(0.05,0,0,0.05,25.950000000000003,0)" xlink:href="#H"/><use transform="matrix(0.05,0,0,0.05,35.95,0)" xlink:href="#u"/><use transform="matrix(0.05,0,0,0.05,45.95,0)" xlink:href="#G"/><use transform="matrix(0.05,0,0,0.05,54.95,0)" xlink:href="#w"/><use transform="matrix(0.05,0,0,0.05,59.95,0)" xlink:href="#K"/></g><g id="k"><use transform="matrix(0.05,0,0,0.05,0,0)" xlink:href="#D"/><use transform="matrix(0.05,0,0,0.05,5.95,0)" xlink:href="#u"/><use transform="matrix(0.05,0,0,0.05,15.949999999999998,0)" xlink:href="#G"/><use transform="matrix(0.05,0,0,0.05,24.95,0)" xlink:href="#y"/><use transform="matrix(0.05,0,0,0.05,34.95,0)" xlink:href="#B"/><use transform="matrix(0.05,0,0,0.05,44.95,0)" xlink:href="#v"/><use transform="matrix(0.05,0,0,0.05,54.95,0)" xlink:href="#G"/><use transform="matrix(0.05,0,0,0.05,63.95,0)" xlink:href="#u"/></g><g id="l"><use transform="matrix(0.05,0,0,0.05,0,0)" xlink:href="#I"/><use transform="matrix(0.05,0,0,0.05,10,0)" xlink:href="#u"/><use transform="matrix(0.05,0,0,0.05,20,0)" xlink:href="#A"/><use transform="matrix(0.05,0,0,0.05,30,0)" xlink:href="#F"/><use transform="matrix(0.05,0,0,0.05,40,0)" xlink:href="#u"/><use transform="matrix(0.05,0,0,0.05,50,0)" xlink:href="#D"/></g><path d="M16-82v-28h88v28H16" id="L"/><path d="M233-177c-1 41-23 64-60 70L243 0h-38l-65-103H63V0H30v-248c88 3 205-21 203 71zM63-129c60-2 137 13 137-47 0-61-80-42-137-45v92" id="M"/><path d="M177-190C167-65 218 103 67 71c-23-6-38-20-44-43l32-5c15 47 100 32 89-28v-30C133-14 115 1 83 1 29 1 15-40 15-95c0-56 16-97 71-98 29-1 48 16 59 35 1-10 0-23 2-32h30zM94-22c36 0 50-32 50-73 0-42-14-75-50-75-39 0-46 34-46 75s6 73 46 73" id="N"/><g id="m"><use transform="matrix(0.05,0,0,0.05,0,0)" xlink:href="#x"/><use transform="matrix(0.05,0,0,0.05,12,0)" xlink:href="#z"/><use transform="matrix(0.05,0,0,0.05,21,0)" xlink:href="#z"/><use transform="matrix(0.05,0,0,0.05,30,0)" xlink:href="#u"/><use transform="matrix(0.05,0,0,0.05,40,0)" xlink:href="#y"/><use transform="matrix(0.05,0,0,0.05,50,0)" xlink:href="#w"/><use transform="matrix(0.05,0,0,0.05,55,0)" xlink:href="#L"/><use transform="matrix(0.05,0,0,0.05,60.95,0)" xlink:href="#M"/><use transform="matrix(0.05,0,0,0.05,73.9,0)" xlink:href="#A"/><use transform="matrix(0.05,0,0,0.05,83.9,0)" xlink:href="#v"/><use transform="matrix(0.05,0,0,0.05,93.9,0)" xlink:href="#N"/><use transform="matrix(0.05,0,0,0.05,103.9,0)" xlink:href="#u"/><use transform="matrix(0.05,0,0,0.05,113.9,0)" xlink:href="#G"/></g><path d="M101-234c-31-9-42 10-38 44h38v23H63V0H32v-167H5v-23h27c-7-52 17-82 69-68v24" id="O"/><g id="n"><use transform="matrix(0.05,0,0,0.05,0,0)" xlink:href="#O"/><use transform="matrix(0.05,0,0,0.05,5,0)" xlink:href="#t"/><use transform="matrix(0.05,0,0,0.05,8.95,0)" xlink:href="#D"/><use transform="matrix(0.05,0,0,0.05,14.899999999999999,0)" xlink:href="#G"/><use transform="matrix(0.05,0,0,0.05,23.9,0)" xlink:href="#w"/></g><g id="o"><use transform="matrix(0.05,0,0,0.05,0,0)" xlink:href="#D"/><use transform="matrix(0.05,0,0,0.05,5.95,0)" xlink:href="#u"/><use transform="matrix(0.05,0,0,0.05,15.949999999999998,0)" xlink:href="#J"/><use transform="matrix(0.05,0,0,0.05,25.950000000000003,0)" xlink:href="#H"/><use transform="matrix(0.05,0,0,0.05,35.95,0)" xlink:href="#u"/><use transform="matrix(0.05,0,0,0.05,45.95,0)" xlink:href="#G"/><use transform="matrix(0.05,0,0,0.05,54.95,0)" xlink:href="#w"/></g><path d="M141 0L90-78 38 0H4l68-98-65-92h35l48 74 47-74h35l-64 92 68 98h-35" id="P"/><g id="p"><use transform="matrix(0.05,0,0,0.05,0,0)" xlink:href="#v"/><use transform="matrix(0.05,0,0,0.05,10,0)" xlink:href="#u"/><use transform="matrix(0.05,0,0,0.05,20,0)" xlink:href="#P"/><use transform="matrix(0.05,0,0,0.05,29,0)" xlink:href="#w"/></g><g id="q"><use transform="matrix(0.05,0,0,0.05,0,0)" xlink:href="#y"/><use transform="matrix(0.05,0,0,0.05,10,0)" xlink:href="#D"/><use transform="matrix(0.05,0,0,0.05,15.949999999999998,0)" xlink:href="#u"/><use transform="matrix(0.05,0,0,0.05,25.950000000000003,0)" xlink:href="#E"/></g></defs></g></svg>